<?xml version="1.0" encoding="utf-8"?>
<!-- Generator: Adobe Illustrator 16.0.0, SVG Export Plug-In . SVG Version: 6.00 Build 0)  -->
<!DOCTYPE svg PUBLIC "-//W3C//DTD SVG 1.1//EN" "http://www.w3.org/Graphics/SVG/1.1/DTD/svg11.dtd">
<svg version="1.1" id="Layer_1" xmlns="http://www.w3.org/2000/svg" xmlns:xlink="http://www.w3.org/1999/xlink" x="0px" y="0px"
	 width="32px" height="32px" viewBox="0 0 32 32" enable-background="new 0 0 32 32" xml:space="preserve">
<path fill="#FC4D3C" d="M31.979,11.754c-1.003-6.015-5.718-10.73-11.732-11.733c-0.383-0.065-0.777,0.023-1.097,0.244
	c-3.521,2.42-7.4,4.198-11.532,5.285C7.055,5.698,6.629,6.159,6.524,6.732C5.145,14.318,2.986,21.79,0.108,28.94
	c-0.225,0.558-0.094,1.195,0.331,1.62l1,1C1.727,31.849,2.109,32,2.5,32c0.188,0,0.379-0.035,0.56-0.108
	c7.151-2.878,14.623-5.036,22.209-6.416c0.573-0.104,1.034-0.53,1.182-1.094c1.088-4.133,2.866-8.012,5.286-11.531
	C31.956,12.53,32.044,12.137,31.979,11.754z M23.804,22.697c-5.747,1.093-11.423,2.629-16.947,4.567l9.716-9.716
	c0.587,0.28,1.234,0.45,1.927,0.451H18.5c2.481,0,4.5-2.018,4.5-4.5c0-2.479-2.018-4.497-4.5-4.5c-2.48,0-4.498,2.019-4.5,4.501
	c0.001,0.692,0.171,1.34,0.451,1.926l-9.715,9.715C6.675,19.619,8.21,13.944,9.303,8.197c3.922-1.131,7.623-2.846,11.023-5.106
	c4.286,0.943,7.641,4.297,8.584,8.583C26.649,15.074,24.936,18.775,23.804,22.697z M17,13.501C17.001,12.674,17.674,12,18.498,12
	C19.326,12.001,20,12.674,20,13.5c0,0.827-0.673,1.5-1.499,1.5C17.674,15,17.001,14.327,17,13.501z"/>
</svg>
