<?xml version="1.0" encoding="utf-8"?>
<!-- Generator: Adobe Illustrator 16.0.0, SVG Export Plug-In . SVG Version: 6.00 Build 0)  -->
<!DOCTYPE svg PUBLIC "-//W3C//DTD SVG 1.1//EN" "http://www.w3.org/Graphics/SVG/1.1/DTD/svg11.dtd">
<svg version="1.1" id="Layer_1" xmlns="http://www.w3.org/2000/svg" xmlns:xlink="http://www.w3.org/1999/xlink" x="0px" y="0px"
	 width="32px" height="32px" viewBox="0 0 32 32" enable-background="new 0 0 32 32" xml:space="preserve">
<path fill-rule="evenodd" clip-rule="evenodd" fill="#FC4D3C" d="M30,18h-1.17c-0.324,2.095-1.144,4.021-2.343,5.66l0.926,0.925
	c0.391,0.39,0.586,0.901,0.586,1.414c0,0.511-0.194,1.023-0.586,1.414c-0.389,0.39-0.899,0.585-1.411,0.586
	c-0.513,0.001-1.025-0.194-1.417-0.586l-0.926-0.926c-1.639,1.199-3.564,2.019-5.659,2.343V30c0,1.104-0.896,2-2,2s-2-0.896-2-2
	v-1.17c-2.095-0.324-4.021-1.144-5.659-2.342l-0.927,0.926C7.024,27.805,6.513,28,6,28c-0.511,0-1.023-0.194-1.414-0.586
	c-0.39-0.389-0.585-0.898-0.586-1.41c-0.001-0.514,0.194-1.026,0.586-1.418l0.927-0.926C4.313,22.021,3.494,20.095,3.17,18H2
	c-1.104,0-2-0.896-2-2s0.896-2,2-2h1.17c0.324-2.095,1.144-4.021,2.342-5.658L4.585,7.414C4.194,7.023,3.999,6.512,3.999,6
	s0.195-1.023,0.586-1.414c0.391-0.392,0.902-0.587,1.413-0.587c0.513,0,1.024,0.195,1.415,0.587L8.34,5.513
	C9.979,4.314,11.905,3.494,14,3.17V2c0-1.104,0.896-2,2-2s2,0.896,2,2v1.17c2.095,0.324,4.021,1.144,5.659,2.342l0.926-0.926
	C24.976,4.195,25.487,4,25.999,4s1.023,0.195,1.414,0.586C27.805,4.977,28,5.488,28,6s-0.195,1.023-0.587,1.414L26.487,8.34
	c1.199,1.639,2.019,3.565,2.343,5.66H30c1.104,0,2,0.896,2,2S31.104,18,30,18z M16,6C10.486,6,6,10.486,6,16s4.486,10,10,10
	s10-4.486,10-10S21.514,6,16,6z M16,22c-3.313,0-6-2.686-6-6s2.687-6,6-6s6,2.686,6,6S19.313,22,16,22z M16,13c-1.654,0-3,1.346-3,3
	s1.346,3,3,3s3-1.346,3-3S17.654,13,16,13z"/>
</svg>
