<svg width="1647px" height="557px" viewBox="0 0 1647 557" version="1.1" xmlns="http://www.w3.org/2000/svg" xmlns:xlink="http://www.w3.org/1999/xlink">
    <g id="Page-1" stroke="none" stroke-width="1" fill="none" fill-rule="evenodd">
        <g id="logo" fill="#ffffff" fill-rule="nonzero">
            <path d="M1422.15889,486.895045 C1397.69976,486.895045 1384.20546,472.342384 1379.43267,466.58219 C1378.03631,464.395346 1378.29956,461.644881 1380.00495,459.728574 L1385.91085,453.145496 C1390.40895,449.031072 1392.65228,450.947379 1395.45643,453.957108 C1400.24067,459.176227 1410.36998,468.50977 1422.73117,468.50977 C1439.60191,468.50977 1457.02203,456.437035 1457.02203,427.354258 L1457.02203,297.282099 C1457.02203,294.542907 1459.2768,292.06298 1462.3671,292.06298 L1473.32049,292.06298 C1476.42223,292.06298 1478.66556,294.542907 1478.66556,297.282099 L1478.66556,426.790638 C1478.65411,464.947693 1455.05339,486.895045 1422.15889,486.895045 Z M1366.73593,483.752346 L1355.49641,483.752346 C1352.9555,483.752346 1351.273,482.106577 1350.71217,480.731345 L1329.91561,435.461409 L1230.13334,435.461409 L1209.61147,480.731345 C1209.05064,482.095304 1207.3567,483.752346 1204.82724,483.752346 L1193.58771,483.752346 C1189.37575,483.752346 1187.13242,480.19027 1188.81492,476.616921 L1274.25592,291.952556 C1275.09144,290.306786 1276.49925,288.931554 1279.04016,288.931554 L1281.84432,288.931554 C1284.37378,288.931554 1285.78158,290.306786 1286.61711,291.952556 L1371.50873,476.616921 C1373.20267,480.178997 1370.95934,483.752346 1366.73593,483.752346 Z M1282.27047,328.596286 L1280.03859,328.596286 L1238.99486,418.595083 L1323.3142,418.595083 C1309.53376,388.678148 1296.03946,358.501948 1282.27047,328.596286 Z M1168.12049,483.752346 L1156.88096,483.752346 C1154.63763,483.752346 1152.37142,481.836039 1151.82203,479.90846 L1126.80207,338.597724 C1126.52737,338.597724 1125.9551,338.597724 1125.6804,338.597724 L1073.94653,483.470536 C1073.3857,485.116306 1070.85624,486.502811 1069.17374,486.502811 L1064.11481,486.502811 C1062.44376,486.502811 1059.90285,485.127578 1059.33057,483.470536 L1007.05876,338.597724 C1006.78407,338.597724 1006.22324,338.597724 1005.92565,338.597724 L981.46652,479.90846 C981.203272,481.836039 978.662361,483.752346 976.419034,483.752346 L965.179508,483.752346 C960.967547,483.752346 959.273606,481.013154 960.132022,477.169268 L996.391512,292.786713 C996.952344,290.599868 999.195671,288.942826 1001.439,288.942826 L1005.9371,288.942826 C1007.90573,288.942826 1010.1605,290.318058 1010.72134,291.963828 L1066.38103,443.149182 C1066.94186,443.149182 1067.21655,443.149182 1067.77738,443.149182 L1122.59011,291.952556 C1123.15094,290.306786 1125.39426,288.931554 1127.3629,288.931554 L1131.87244,288.931554 C1134.11577,288.931554 1136.37054,290.577323 1136.93137,292.77544 L1173.19087,477.157996 C1174.02639,481.001882 1172.33245,483.752346 1168.12049,483.752346 Z M938.607861,483.752346 L927.368334,483.752346 C924.827423,483.752346 923.144928,482.106577 922.584096,480.731345 L901.787538,435.461409 L802.005266,435.461409 L781.483402,480.731345 C780.92257,482.095304 779.228629,483.752346 776.699163,483.752346 L765.459637,483.752346 C761.247676,483.752346 759.004349,480.19027 760.675399,476.616921 L846.127847,291.952556 C846.963372,290.306786 848.371174,288.931554 850.90064,288.931554 L853.704799,288.931554 C856.24571,288.931554 857.653512,290.306786 858.489037,291.952556 L943.380653,476.616921 C945.074594,480.178997 942.808376,483.752346 938.607861,483.752346 Z M853.079982,328.596286 L850.836655,328.596286 L809.804371,418.595083 L894.123711,418.595083 C880.354719,388.678148 866.848974,358.501948 853.079982,328.596286 Z M743.26314,484.144581 L645.998888,484.144581 C642.908591,484.144581 640.665264,481.675926 640.665264,478.936734 L640.665264,297.282099 C640.665264,294.542907 642.908591,292.06298 645.998888,292.06298 L656.975167,292.06298 C659.779326,292.06298 662.308792,294.542907 662.308792,297.282099 L662.308792,465.748033 L743.26314,465.748033 C746.353438,465.748033 748.608211,468.216687 748.608211,470.967152 L748.608211,478.925462 C748.608211,481.675926 746.353438,484.144581 743.26314,484.144581 Z M1646.24799,213.632805 C1646.24799,241.892698 1621.22802,270.434401 1579.89815,270.434401 C1543.37542,270.434401 1523.1168,255.622474 1516.66151,249.298661 C1513.85735,246.559469 1513.02183,245.454775 1515.25371,241.610888 L1528.46187,218.840651 C1530.71664,215.267302 1536.06171,215.808377 1538.03035,217.194882 C1539.15201,217.747229 1559.37629,232.288618 1577.92952,232.288618 C1589.16905,232.288618 1597.32972,225.435002 1597.32972,215.81965 C1597.32972,204.299263 1587.498,195.518067 1568.38394,188.112104 C1544.21094,178.778562 1513.84591,160.404559 1513.84591,127.466622 C1513.84591,100.311424 1535.48944,72.8631439 1578.77649,72.8631439 C1608.01986,72.8631439 1630.49891,87.4045326 1638.93428,93.446536 C1642.31072,95.3628431 1641.73844,100.300152 1640.60533,102.216459 L1626.27551,123.352198 C1624.30687,126.3732 1619.25939,128.841854 1616.71848,126.914275 C1614.17757,125.539043 1593.66715,110.456579 1576.52172,110.456579 C1566.40386,110.456579 1558.80401,117.039658 1558.80401,124.445621 C1558.80401,134.590776 1567.23938,142.278549 1589.45519,151.059744 C1611.38485,159.570402 1646.24799,176.309907 1646.24799,213.632805 Z M1390.64053,270.423128 C1334.42,270.423128 1289.73659,226.787689 1289.73659,171.913673 C1289.73659,117.039658 1334.43145,72.8631439 1390.64053,72.8631439 C1446.86105,72.8631439 1491.8306,117.039658 1491.8306,171.913673 C1491.8306,226.787689 1446.86105,270.423128 1390.64053,270.423128 Z M1391.12711,116.703111 C1360.48738,116.703111 1335.19272,141.671465 1335.19272,171.858937 C1335.19272,201.764599 1360.48738,226.473688 1391.12711,226.473688 C1422.04153,226.473688 1447.34763,201.775872 1447.34763,171.858937 C1447.34763,141.671465 1422.04153,116.703111 1391.12711,116.703111 Z M1250.5734,268.076171 L1216.84338,268.076171 C1214.02777,268.076171 1211.50975,265.607516 1211.50975,262.868325 L1211.50975,81.2136887 C1211.50975,78.4744969 1214.03922,75.9945701 1216.84338,75.9945701 L1250.5734,75.9945701 C1253.38901,75.9945701 1255.90703,78.4744969 1255.90703,81.2136887 L1255.90703,262.857052 C1255.91847,265.607516 1253.38901,268.076171 1250.5734,268.076171 Z M1170.89848,260.129133 C1172.86711,263.691209 1170.89848,268.076171 1166.12568,268.076171 L1128.74453,268.076171 C1126.48976,268.076171 1124.80726,266.712211 1124.24643,265.607516 L1086.86528,192.900572 L1067.46508,192.900572 L1067.46508,262.868325 C1067.46508,265.607516 1064.93561,268.076171 1062.12001,268.076171 L1028.67612,268.076171 C1025.58582,268.076171 1023.34249,265.607516 1023.34249,262.868325 L1023.34249,81.2136887 C1023.34249,78.4744969 1025.58582,75.9945701 1028.67612,75.9945701 L1112.72077,75.9945701 C1146.45079,75.9945701 1174.00022,102.608693 1174.00022,135.26482 C1174.00022,160.514983 1156.85479,180.816566 1132.39566,190.420646 L1170.89848,260.129133 Z M1109.34607,114.615494 L1067.74151,114.615494 L1067.74151,157.416775 L1109.34607,157.416775 C1120.87174,157.416775 1130.71491,146.98981 1130.71491,135.469423 C1130.71491,123.949036 1120.87174,114.615494 1109.34607,114.615494 Z M980.143804,268.076171 L863.776935,268.076171 C860.675192,268.076171 858.431865,265.607516 858.431865,262.868325 L858.431865,81.2136887 C858.431865,78.4744969 860.675192,75.9945701 863.776935,75.9945701 L980.143804,75.9945701 C983.245547,75.9945701 985.488874,78.4744969 985.488874,81.2136887 L985.488874,111.119351 C985.488874,113.858543 983.245547,116.327197 980.143804,116.327197 L902.279753,116.327197 L902.279753,150.347284 L966.374812,150.347284 C969.190416,150.347284 971.708436,152.815938 971.708436,155.566402 L971.708436,185.472065 C971.708436,188.493066 969.178971,190.679911 966.374812,190.679911 L902.279753,190.679911 L902.279753,227.720999 L980.143804,227.720999 C983.245547,227.720999 985.488874,230.200926 985.488874,232.940117 L985.488874,262.84578 C985.488874,265.607516 983.234101,268.076171 980.143804,268.076171 Z M804.53115,270.423128 L800.03305,270.423128 C799.197525,270.423128 796.942752,269.588971 796.381921,269.047896 L685.348676,160.111477 L685.073983,160.111477 L685.073983,262.464818 C685.073983,265.20401 682.819211,267.672664 679.728913,267.672664 L646.285027,267.672664 C643.469423,267.672664 640.939957,265.20401 640.939957,262.464818 L640.665264,77.8004526 C640.665264,75.0499884 643.19473,72.8631439 645.998888,72.8631439 L653.026454,72.8631439 L765.181362,178.226214 L765.456055,178.226214 L765.456055,80.8101819 C765.456055,78.0709901 767.699382,75.5910633 770.801125,75.5910633 L804.53115,75.5910633 C807.346754,75.5910633 809.87622,78.0709901 809.87622,80.8101819 L809.87622,265.474547 C809.87622,268.213739 807.346754,270.423128 804.53115,270.423128 Z M0,0 L569.581387,0 L569.581387,557 L0,557 L0,0 Z M73.1003618,155.501017 L73.1003618,485.515951 L170.703638,485.515951 L170.703638,166.938465 L399.713075,166.938465 L399.713075,485.534518 L496.481025,485.534518 L496.481025,166.938465 L399.713075,166.938465 L399.713075,71.5026168 L159.009065,71.5026168 L73.1003618,71.5026168 L73.1003618,155.501017 Z" id="Shape"></path>
        </g>
    </g>
</svg>