<?xml version="1.0" encoding="utf-8"?>
<!-- Generator: Adobe Illustrator 16.0.0, SVG Export Plug-In . SVG Version: 6.00 Build 0)  -->
<!DOCTYPE svg PUBLIC "-//W3C//DTD SVG 1.1//EN" "http://www.w3.org/Graphics/SVG/1.1/DTD/svg11.dtd">
<svg version="1.1" id="Layer_1" xmlns="http://www.w3.org/2000/svg" xmlns:xlink="http://www.w3.org/1999/xlink" x="0px" y="0px"
	 width="32px" height="32px" viewBox="0 0 32 32" enable-background="new 0 0 32 32" xml:space="preserve">
<path fill-rule="evenodd" clip-rule="evenodd" fill="#F05041" d="M25.5,16h-21C3.672,16,3,15.328,3,14.5S3.672,13,4.5,13h21
	c1.93,0,3.5-1.57,3.5-3.5S27.43,6,25.5,6S22,7.57,22,9.5c0,0.828-0.672,1.5-1.5,1.5S19,10.328,19,9.5C19,5.916,21.916,3,25.5,3
	S32,5.916,32,9.5S29.084,16,25.5,16z M25,23.5c0,3.032-2.467,5.5-5.5,5.5S14,26.532,14,23.5c0-0.828,0.672-1.5,1.5-1.5
	s1.5,0.672,1.5,1.5c0,1.379,1.121,2.5,2.5,2.5s2.5-1.121,2.5-2.5S20.879,21,19.5,21h-18C0.672,21,0,20.328,0,19.5S0.672,18,1.5,18
	h18C22.533,18,25,20.468,25,23.5z"/>
</svg>
